<?xml version="1.0" encoding="UTF-8"?>
<svg width="1024px" height="415px" viewBox="0 0 1024 415" version="1.1" xmlns="http://www.w3.org/2000/svg" xmlns:xlink="http://www.w3.org/1999/xlink">
    <!-- Generator: Sketch 52.3 (67297) - http://www.bohemiancoding.com/sketch -->
    <title>Group 7 Copy 3</title>
    <desc>Created with Sketch.</desc>
    <g id="Page-1" stroke="none" stroke-width="1" fill="none" fill-rule="evenodd" opacity="0.3">
        <g id="iPhone-SE" transform="translate(0.000000, -73.000000)" fill="#1D49B8">
            <g id="Group-7-Copy-3" transform="translate(0.000000, 73.000000)">
                <path d="M1024,293.057977 L1024,415 L748,415 C763.111,392.940488 875.65,384.014732 872.388025,342.81432 C870.017875,312.857563 898.0198,266.850437 949.7905,267.000366 C973.975,267.070332 997.573,301.214099 1024,293.057977" id="Fill-1"></path>
                <path d="M1024,0 L1024,51.4506495 C1007.11949,40.0507405 985.579685,29.0838668 961.094262,32.0647618 C941.08748,34.5018448 927.835655,45.5794949 909.754191,51.1586023 C890.587047,57.0599687 865.812568,56.0931919 848.176732,48.7315899 C822.951464,38.2078223 819.88885,17.6940284 825.205409,0 L1024,0 Z" id="Fill-3"></path>
                <path d="M36.2860553,196.179603 C28.8179391,201.817633 21.4535468,208.086562 21.0714973,215.19669 C20.5891815,224.129413 31.1863001,231.900481 42.2847505,238.119339 C57.3074194,246.541335 74.3181286,253.771633 88.2516972,262.804499 C102.183537,271.837365 113.126402,283.26364 112.436638,295.370884 C111.745146,307.558243 99.5575954,318.443748 86.7459729,328.117526 C61.6465333,347.084542 32.4136988,364.208933 0,379 L0,42 C24.3578142,42.0400571 48.6983411,43.4019969 72.6066853,46.065791 C95.0974704,48.5693569 118.727489,52.7753477 133.129544,63.0900392 C151.002889,75.9082967 149.51791,94.6349697 140.372925,110.227178 C120.838269,143.564662 73.2808902,168.249822 36.2860553,196.179603" id="Fill-5"></path>
            </g>
        </g>
    </g>
</svg>