<?xml version="1.0" encoding="UTF-8"?>
<svg width="320px" height="390px" viewBox="0 0 320 390" version="1.1" xmlns="http://www.w3.org/2000/svg" xmlns:xlink="http://www.w3.org/1999/xlink">
    <!-- Generator: Sketch 52.3 (67297) - http://www.bohemiancoding.com/sketch -->
    <title>Group 7</title>
    <desc>Created with Sketch.</desc>
    <g id="Page-1" stroke="none" stroke-width="1" fill="none" fill-rule="evenodd" opacity="0.3">
        <g id="iPhone-SE" transform="translate(0.000000, -72.000000)" fill="#1D49B8">
            <g id="Group-7" transform="translate(0.000000, 72.000000)">
                <path d="M320,267.070366 L320,389.070366 L160,389.070366 C168.76,367.000366 234,358.070366 232.109,316.850366 C230.735,286.879366 246.968,240.850366 276.98,241.000366 C291,241.070366 304.68,275.230366 320,267.070366" id="Fill-1"></path>
                <path d="M320,0 L320,51.09 C310.189,39.77 297.67,28.88 283.439,31.84 C271.811,34.26 264.109,45.26 253.6,50.8 C242.46,56.66 228.061,55.7 217.811,48.39 C203.15,37.94 201.37,17.57 204.46,0 L320,0 Z" id="Fill-3"></path>
                <path d="M20.9902,196.3999 C16.6702,202.0299 12.4102,208.2899 12.1892,215.3899 C11.9102,224.3099 18.0402,232.0699 24.4602,238.2799 C33.1502,246.6899 42.9902,253.9099 51.0502,262.9299 C59.1092,271.9499 65.4392,283.3599 65.0402,295.4499 C64.6402,307.6199 57.5902,318.4899 50.1792,328.1499 C35.6602,347.0899 18.7502,364.1899 0.0002,378.9599 L0.0002,42.4399 C14.0902,42.4799 28.1702,43.8399 42.0002,46.4999 C55.0102,48.9999 68.6792,53.1999 77.0102,63.4999 C87.3492,76.2999 86.4902,94.9999 81.2002,110.5699 C69.9002,143.8599 42.3902,168.5099 20.9902,196.3999" id="Fill-5"></path>
            </g>
        </g>
    </g>
</svg>