<?xml version="1.0" encoding="UTF-8"?>
<svg width="768px" height="415px" viewBox="0 0 768 415" version="1.1" xmlns="http://www.w3.org/2000/svg" xmlns:xlink="http://www.w3.org/1999/xlink">
    <!-- Generator: Sketch 52.3 (67297) - http://www.bohemiancoding.com/sketch -->
    <title>Group 7 Copy 2</title>
    <desc>Created with Sketch.</desc>
    <g id="Page-1" stroke="none" stroke-width="1" fill="none" fill-rule="evenodd" opacity="0.3">
        <g id="iPhone-SE" transform="translate(0.000000, -73.000000)" fill="#1D49B8">
            <g id="Group-7-Copy-2" transform="translate(0.000000, 73.000000)">
                <path d="M768,293.057977 L768,415 L561,415 C572.33325,392.940488 656.7375,384.014732 654.291019,342.81432 C652.513406,312.857563 673.51485,266.850437 712.342875,267.000366 C730.48125,267.070332 748.17975,301.214099 768,293.057977" id="Fill-1"></path>
                <path d="M768,0 L768,51.4506495 C755.318624,40.0507405 739.136977,29.0838668 720.742455,32.0647618 C705.712485,34.5018448 695.757134,45.5794949 682.173546,51.1586023 C667.774349,57.0599687 649.162676,56.0931919 635.913863,48.7315899 C616.963537,38.2078223 614.662768,17.6940284 618.6568,0 L768,0 Z" id="Fill-3"></path>
                <path d="M27.1528305,196.179603 C21.5644442,201.817633 16.0536745,208.086562 15.7677871,215.19669 C15.4068705,224.129413 23.3366871,231.900481 31.64165,238.119339 C42.883103,246.541335 55.6122051,253.771633 66.038685,262.804499 C76.4638713,271.837365 84.6524095,283.26364 84.13626,295.370884 C83.6188168,307.558243 74.4988809,318.443748 64.9119525,328.117526 C46.1300589,347.084542 24.2551487,364.208933 0,379 L0,42 C18.2269358,42.0400571 36.4409355,43.4019969 54.3315332,46.065791 C71.1613724,48.5693569 88.8436993,52.7753477 99.6207469,63.0900392 C112.995359,75.9082967 111.88415,94.6349697 105.040964,110.227178 C90.4231945,143.564662 54.8360403,168.249822 27.1528305,196.179603" id="Fill-5"></path>
            </g>
        </g>
    </g>
</svg>