<svg xmlns="http://www.w3.org/2000/svg" xmlns:xlink="http://www.w3.org/1999/xlink" viewBox="0 0 1113.56 844.08"><defs><style>.cls-1,.cls-4,.cls-6{fill:#4176f8;}.cls-1,.cls-8{opacity:0.1;}.cls-1,.cls-14,.cls-16,.cls-6,.cls-8{isolation:isolate;}.cls-11,.cls-2,.cls-6{opacity:0.5;}.cls-3{fill:none;stroke:#535461;stroke-miterlimit:10;stroke-width:2px;}.cls-5{fill:#6c63ff;}.cls-7{fill:#474059;}.cls-9{fill:url(#linear-gradient);}.cls-10{fill:#fff;}.cls-11,.cls-20{fill:#c0bccf;}.cls-12{fill:url(#linear-gradient-2);}.cls-13{fill:#53526b;}.cls-14{opacity:0.05;}.cls-15{fill:#5f5d7e;}.cls-16{opacity:0.02;}.cls-17{fill:#e82127;}.cls-18{fill:#d6dbe6;}.cls-19{fill:#fdc2cc;}.cls-21{fill:#865a61;}.cls-22{fill:url(#linear-gradient-3);}</style><linearGradient id="linear-gradient" x1="514.28" y1="51.42" x2="514.28" y2="806.72" gradientTransform="matrix(1, 0, 0, -1, 0, 846.01)" gradientUnits="userSpaceOnUse"><stop offset="0" stop-color="gray" stop-opacity="0.25"/><stop offset="0.54" stop-color="gray" stop-opacity="0.12"/><stop offset="1" stop-color="gray" stop-opacity="0.1"/></linearGradient><linearGradient id="linear-gradient-2" x1="247.16" y1="-21.93" x2="247.16" y2="521.11" gradientTransform="translate(906.79 822.15) rotate(180)" xlink:href="#linear-gradient"/><linearGradient id="linear-gradient-3" x1="478.6" y1="277.88" x2="478.6" y2="791.28" gradientTransform="matrix(1, 0, 0, -1, -43.2, 822.15)" xlink:href="#linear-gradient"/></defs><title>search-illustration</title><g id="Layer_2" data-name="Layer 2"><g id="_80df28fc-b448-4013-8ee3-62e531de40a8" data-name="80df28fc-b448-4013-8ee3-62e531de40a8"><path class="cls-1" d="M1047,458.23c-39.15,53.72-26.23,130.4-3.6,191.49,7.58,20.45,16.19,42.08,12.26,64.33-4.8,27.2-27.36,47.58-50.81,58.68-42.75,20.23-93.25,17-131.49-8.49-33-22-56.23-58.56-89.87-79.51-56.3-35.05-129.39-19.39-192,7.37-44.33,18.93-92.89,43.31-136.09,25.83-30.4-12.3-50.87-43.61-61.64-77.08-5.2-16.16-8.84-33.7-19.2-46.35-6.16-7.52-14.3-12.76-22.67-17.14-76.39-40-174.65-15-248.71-59.63-50-30.14-81.12-88.63-94-150.12S-.65,241.21,4.5,177.41C8.16,132.07,14,83.62,41.21,48,70,10.32,118.36-4.65,161.57,1.25s82,29.9,115.84,58.55C319.8,95.54,358.8,140.41,411.52,154c35.91,9.24,74.06,2.7,111.39-.19,62.4-4.82,124.58.73,186.38,7,59.16,6,118.73,12.7,174.76,32.37,39.65,13.92,71.08,40.23,108.41,58.21,24.33,11.72,51.1,14.44,74,29.58,28.26,18.65,53.8,51.69,45.51,91.34C1104.14,410,1067.8,429.72,1047,458.23Z"/><g class="cls-2"><path class="cls-3" d="M855,703.25s3.3-97.76,56.19-153c22.2-23.18,36.78-52.62,40.64-84.48a249.62,249.62,0,0,0,1.24-45.57"/><path class="cls-4" d="M986.19,385.21c-3.62,10.92-33.88,36-33.88,36S943,383,946.66,372.09a20.82,20.82,0,1,1,39.53,13.11h0Z"/><path class="cls-4" d="M998.8,456.51c-9,7.2-48,11.82-48,11.82s13-37.11,22-44.3a20.82,20.82,0,0,1,27.34,31.4C999.71,455.81,999.26,456.17,998.8,456.51Z"/><path class="cls-4" d="M963.12,559.35c-11.38,1.68-47.41-14-47.41-14s29.94-25.48,41.32-27.16a20.82,20.82,0,1,1,6.09,41.2h0Z"/><path class="cls-4" d="M918.59,631.09c-10.93,3.58-49.1-5.82-49.1-5.82s25.21-30.17,36.14-33.75a20.83,20.83,0,1,1,13,39.57Z"/><path class="cls-4" d="M908.59,456.68c5.31,10.2,39.21,30.17,39.21,30.17s3.08-39.19-2.23-49.4a20.82,20.82,0,0,0-36.94,19.22Z"/><path class="cls-4" d="M857.58,541.23c8.12,8.15,46.4,17.07,46.4,17.07s-8.79-38.32-16.9-46.47a20.82,20.82,0,1,0-29.5,29.39h0Z"/><path class="cls-4" d="M819.28,630.22c6.62,9.4,42.85,24.67,42.85,24.67s-2.18-39.25-8.81-48.66a20.82,20.82,0,0,0-34.79,22.87c.25.39.51.76.79,1.13Z"/><path class="cls-3" d="M866.61,662.79s-30-43.64-24.74-84.7a80.22,80.22,0,0,0-9.48-49.86A135,135,0,0,0,818.27,508"/><path class="cls-5" d="M821.44,482.09c1.93,5.92-3.17,26.58-3.17,26.58S801.94,495,800,489.1a11.27,11.27,0,1,1,21.43-7Z"/><path class="cls-5" d="M849.87,509.08c-1.59,6-17.11,20.59-17.11,20.59s-6.28-20.34-4.69-26.36a11.28,11.28,0,1,1,21.8,5.77Z"/><path class="cls-5" d="M867.41,565.34c-4.41,4.39-25.16,9.14-25.16,9.14s4.84-20.73,9.26-25.12a11.28,11.28,0,1,1,15.9,16Z"/><path class="cls-5" d="M871.1,610.91c-3.61,5.07-23.3,13.24-23.3,13.24s1.27-21.25,4.88-26.32a11.27,11.27,0,1,1,18.38,13.06h0Z"/><path class="cls-5" d="M810.64,538.15c5.59,2.74,26.76.54,26.76.54s-11.27-18.06-16.86-20.79a11.27,11.27,0,0,0-9.9,20.25Z"/><path class="cls-5" d="M815.63,591.4c6.16.94,25.7-7.49,25.7-7.49S825.17,570.05,819,569.15a11.27,11.27,0,1,0-3.39,22.29Z"/><path class="cls-5" d="M827.57,642.47c5.91,2,26.6-3,26.6-3s-13.58-16.39-19.49-18.36a11.28,11.28,0,0,0-7.11,21.4Z"/><path class="cls-6" d="M821.44,482.09c1.93,5.92-3.17,26.58-3.17,26.58S801.94,495,800,489.1a11.27,11.27,0,1,1,21.43-7Z"/><path class="cls-6" d="M849.87,509.08c-1.59,6-17.11,20.59-17.11,20.59s-6.28-20.34-4.69-26.36a11.28,11.28,0,1,1,21.8,5.77Z"/><path class="cls-6" d="M867.41,565.34c-4.41,4.39-25.16,9.14-25.16,9.14s4.84-20.73,9.26-25.12a11.28,11.28,0,1,1,15.9,16Z"/><path class="cls-6" d="M871.1,610.91c-3.61,5.07-23.3,13.24-23.3,13.24s1.27-21.25,4.88-26.32a11.27,11.27,0,1,1,18.38,13.06h0Z"/><path class="cls-6" d="M810.64,538.15c5.59,2.74,26.76.54,26.76.54s-11.27-18.06-16.86-20.79a11.27,11.27,0,0,0-9.9,20.25Z"/><path class="cls-6" d="M815.63,591.4c6.16.94,25.7-7.49,25.7-7.49S825.17,570.05,819,569.15a11.27,11.27,0,1,0-3.39,22.29Z"/><path class="cls-6" d="M827.57,642.47c5.91,2,26.6-3,26.6-3s-13.58-16.39-19.49-18.36a11.28,11.28,0,0,0-7.11,21.4Z"/><polygon class="cls-7" points="811.1 781.12 896.43 781.12 917.77 650.99 789.77 650.99 811.1 781.12"/><polygon class="cls-8" points="806.1 650.99 826.03 772.59 897.83 772.59 896.43 781.12 811.1 781.12 789.77 650.99 806.1 650.99"/></g><rect class="cls-9" x="201.28" y="39.3" width="626" height="755.3"/><rect class="cls-10" x="209.28" y="48.96" width="610" height="736"/><rect class="cls-11" x="254.76" y="341.66" width="234.88" height="149.59"/><rect class="cls-11" x="538.92" y="341.66" width="234.88" height="149.59"/><rect class="cls-11" x="254.76" y="575.37" width="234.88" height="149.59"/><rect class="cls-11" x="538.92" y="575.37" width="234.88" height="149.59"/><path class="cls-12" d="M578.41,578.71h.15c.22,6.7,1.17,12.76,3,14.44,4.36,4,22.44-4,21.2-8.84-.25-1-.67-2.64-1.2-4.71,4.88-.61,9.05-2,10.71-4.86l3.14,9.68.22.69h.24c2.07,19.62,6.76,60.36,10.51,65.82,5,7.23,10.75,38.56,10.75,38.56l10.75,64.27s4.14,37,6.62,41a4.67,4.67,0,0,0,2.72,1.41c-1.45,4.34-3.53,9.41-6,12.24-5,5.62-11.58,16.87-17.37,16.07s-7.44,11.25,3.31,12.85c6,.89,15.44-.19,22.73-1.33,0,3.22,2.24,6.92,7.87,7.76,10.75,1.61,33.08-3.21,33.08-3.21s19-8,19.85-13.66c.6-4.1-2.31-20.56-3.93-29.19,3-4.81-.2-46.32-.2-46.32l-5.79-79.53s3.31-44.18,0-52.22c-2.07-5-2.84-28-3.13-44.45l4,.26a8.62,8.62,0,0,0,.62-.87l1,.07s5-5.62.83-14.46c-3.07-6.57-2.49-36.23-2-51h0l.59-7a2.07,2.07,0,0,0,.49-.76,73.35,73.35,0,0,0,22.33-6.76,23.09,23.09,0,0,0,5.86-3.56c4.14-4,1.65-28.12-6.62-64.27S719,393.89,719,393.89s-19.85-1.61-28.95-13.66-15.21-11.89-15.21-11.89h0c-.23-1.58-.39-3.07-.5-4.46,0-.52-.08-1-.11-1.52a26.58,26.58,0,0,0,6.88-10.43c1.86-1,4.15-1.33,5.93-2.59a7.39,7.39,0,0,0,1.23-1.14,10.12,10.12,0,0,0,3.19-6.29,25.78,25.78,0,0,0-.37-7.89c-.63-3.84-1.56-7.77-3.8-10.79s-5.59-4.84-8.82-6.53q-13.12-6.9-26.31-13.64a14.41,14.41,0,0,0-5.63-2c-3.52-.2-6.68,2.21-9.52,4.5a39.91,39.91,0,0,0-3.25,2.85A17.13,17.13,0,0,0,631.4,311c-3.32,4.45-4.73,12.83-3.27,18.39.46,1.76,1.45,2.27,2.67,2.25a25.78,25.78,0,0,0-2.75,11.6,26.31,26.31,0,0,0,12.21,22.09c0,.56,0,1.11,0,1.64a60.17,60.17,0,0,1-.2,6.15s-22,11.89-24.47,17.51-11.58,9.64-11.58,9.64-17.37,8.84-17.37,40.17l-9.1,44.18L575.94,569s1.14-1,3-2.42c-.06.56-.11,1.14-.16,1.73a94.85,94.85,0,0,0-.25,9.69ZM689.51,797c-.34,1.29-.84,3-1.47,5-.28-1.66-.56-3.3-.84-4.86.72-.07,1.49-.11,2.31-.14Z"/><path class="cls-13" d="M659.47,786.66s-3.19,14.34-8,19.91S640.36,823.3,634.8,822.5s-7.17,11.15,3.19,12.74,31.81-3.18,31.81-3.18,18.32-8,19.11-13.54-4.78-34.25-4.78-34.25Z"/><path class="cls-14" d="M659.47,786.66s-3.19,14.34-8,19.91S640.36,823.3,634.8,822.5s-7.17,11.15,3.19,12.74,31.81-3.18,31.81-3.18,18.32-8,19.11-13.54-4.78-34.25-4.78-34.25Z"/><path class="cls-13" d="M688.94,793s-3.19,14.34-8,19.91-11.14,16.73-16.69,15.93-7.17,11.15,3.19,12.74,31.86-3.19,31.86-3.19,18.32-8,19.11-13.54-4.78-34.25-4.78-34.25Z"/><path class="cls-15" d="M616.46,574.82s6.37,68.49,11.15,75.66S638,688.71,638,688.71l10.35,63.71s4,36.64,6.37,40.62,31.93,2.27,31.93,2.27L668.23,584.37Z"/><path class="cls-14" d="M616.46,574.82s6.37,68.49,11.15,75.66S638,688.71,638,688.71l10.35,63.71s4,36.64,6.37,40.62,31.93,2.27,31.93,2.27L668.23,584.37Z"/><path class="cls-15" d="M603.72,542.15l2.08,6.61,11.25,35.71.22.68h.06c1.51.34,33.39,7.67,40.27,9.92a8.41,8.41,0,0,1,1.09.41c3.19,1.59,7.17,58.93,7.17,58.93s2.39,54.16,4,58.14,8,86,11.95,83.62,32.65,0,32.65,0c3.19-3.19,0-46.19,0-46.19l-5.66-78.83s3.19-43.8,0-51.77-3.19-61.32-3.19-61.32l-65.19-10.19-6.3-1Z"/><path class="cls-16" d="M605.8,548.77l11.25,35.71.27.7c1.51.34,33.39,7.67,40.27,9.92h.69l-17.81-47.22-.51-1.36-5.79.37Z"/><path class="cls-8" d="M680.18,382.88s-29.47,31.86-47.79,5.57L614.87,400.4l3.19,18.32L607.7,557.29s27.08-.8,46.19,5.57A29.66,29.66,0,0,0,685,555.69L681.8,433.85,689,396.42Z"/><path class="cls-13" d="M680.18,380.49s-29.47,31.86-47.79,5.57L614.87,398l3.19,18.32L607.7,554.9s27.08-.8,46.19,5.57A29.66,29.66,0,0,0,685,553.3L681.8,431.46,689,394Z"/><g id="b7475575-9269-4b4a-a721-bb0a166a2f3e"><g id="_5bdc843c-f8f1-42c9-9268-9744bdec504e" data-name="5bdc843c-f8f1-42c9-9268-9744bdec504e"><polyline id="_6bc746a9-2d5c-4457-b327-3c896c91b9d0" data-name="6bc746a9-2d5c-4457-b327-3c896c91b9d0" class="cls-17" points="621.35 522.37 621.35 527.39 619.75 527.39 619.75 524.05 613.9 524.05 613.9 527.39 612.29 527.39 612.29 522.38 621.35 522.37"/><path id="d39c551f-7962-48ac-bd52-1b7ff04213b0" class="cls-17" d="M619.92,520.75h-6.18a2.28,2.28,0,0,1-1.68-1.66h9.53a2.3,2.3,0,0,1-1.68,1.66"/></g><g id="_338417f9-9740-4f15-9fb5-4758cf3f6efe" data-name="338417f9-9740-4f15-9fb5-4758cf3f6efe"><path id="a3b10f10-7568-4e16-9739-cab30d2da761" class="cls-17" d="M675.8,519.15a2.31,2.31,0,0,1-1.67,1.65h-2.6l-.13.05v6.56h-1.6v-6.56l-.15-.05h-2.6a2.34,2.34,0,0,1-1.67-1.65H675.8"/></g></g><path class="cls-18" d="M618.85,545.35s0,20.71-4.78,29.47-32.65,4-32.65,4L587,549.35Z"/><path class="cls-19" d="M584.45,593.15c4.2,4,21.61-4,20.41-8.76-.84-3.37-3.78-15.43-5.45-22.27l-1.16-4.81s-10.2-3.19-13.8,0c-1.31,1.16-2.23,5.73-2.66,11.25C581.05,578.15,581.8,590.61,584.45,593.15Z"/><path class="cls-19" d="M622.8,394.82l27.87,21.5s41.41-2.39,31.06-22.3a74.17,74.17,0,0,1-8-28.14,58.26,58.26,0,0,1,0-10.89s-38.23-35-33.45,4.78a88.31,88.31,0,0,1,.66,9.2C641.51,398.83,622.8,394.82,622.8,394.82Z"/><path class="cls-8" d="M640.36,359.78A88.31,88.31,0,0,1,641,369a26.11,26.11,0,0,0,14.47,4.34c7.13,0,12.38-6.94,17.12-11.55-.53-6.61,1.19-6.77,1.19-6.77S635.58,320,640.36,359.78Z"/><circle class="cls-19" cx="655.49" cy="345.45" r="26.28"/><path class="cls-8" d="M674.2,370.53s4.38.4,13.14,12.34,27.87,13.54,27.87,13.54,7.17-3.19,15.13,32.65,10.35,59.73,6.37,63.71-19.91,9.57-27.91,9.57c0,0-2.39,50.17,1.59,58.93s-.8,14.34-.8,14.34l-35-2.39s-12-15.13-14.34-41.41S649.9,430.66,653.88,421.9s21.5-31.06,20.71-33.45S674.2,370.53,674.2,370.53Z"/><path class="cls-18" d="M674.29,370.29s5.89-.16,14.65,11.79,27.86,13.54,27.86,13.54,7.17-3.19,15.13,32.65S742.28,488,738.3,492s-19.91,9.56-27.87,9.56c0,0-2.39,50.17,1.59,58.93s-.8,14.34-.8,14.34l-35-2.39s-12-15.13-14.34-41.41-10.37-101.14-6.39-109.86S677,390.09,676.2,387.7,674.29,370.29,674.29,370.29Z"/><path class="cls-8" d="M581.8,568.55c3.81-2.91,11-7.44,17.62-6.44l-1.16-4.81s-10.2-3.19-13.8,0C583.13,558.46,582.22,563,581.8,568.55Z"/><path class="cls-8" d="M640.8,375.31S620.49,388.45,618.1,394,607,403.59,607,403.59s-16.72,8.76-16.72,39.82l-8.76,43.8L621.29,543s4.78-55.75,7.17-69.29,5.57-39,5.57-39,12-15.13,10.35-19.11S640.8,375.31,640.8,375.31Z"/><path class="cls-18" d="M640.8,375.07s-21.18,11.79-23.56,17.36S606.09,402,606.09,402s-16.72,8.76-16.72,39.82l-8.76,43.8L579,569.23s14.34-13.54,24.69-7.17,16.72-20.71,16.72-20.71,4.78-55.75,7.17-69.29,5.57-39,5.57-39,12-15.13,10.35-19.11S640.8,375.07,640.8,375.07Z"/><path class="cls-8" d="M632.42,313.48a25.79,25.79,0,0,1,4.64-4.58c2.74-2.28,5.77-4.66,9.17-4.46a13.54,13.54,0,0,1,5.42,1.94q12.71,6.69,25.33,13.52c3.11,1.68,6.32,3.46,8.49,6.48s3,6.9,3.66,10.7a26.3,26.3,0,0,1,.36,7.82,9.85,9.85,0,0,1-3.46,6.57c-2.27,1.65-5.38,1.66-7.28,3.82-1.1,1.25-1.58,3-2.36,4.52s-2.13,3-3.67,2.73-2.47-1.9-2.69-3.55a21.45,21.45,0,0,1,.29-5c.3-3-.08-6.18-1.82-8.41-1.2-1.52-2.92-2.44-4.08-4-2.78-3.76-1.51-10-4.56-13.53a7.21,7.21,0,0,0-7-2c-2.47.52-4.73,1.86-7,3a53.1,53.1,0,0,1-9.59,3.7c-2.78.76-6,2.58-6.95-1.12C627.87,326.2,629.22,317.89,632.42,313.48Z"/><rect class="cls-20" x="254.76" y="107.96" width="234.88" height="149.59"/><rect class="cls-11" x="538.92" y="107.96" width="234.88" height="149.59"/><path class="cls-21" d="M633.22,312.69a25.79,25.79,0,0,1,4.64-4.58c2.74-2.28,5.77-4.66,9.17-4.46a13.54,13.54,0,0,1,5.42,1.94c8.46,4.46,15.49.24,25.33,13.52,2.1,2.84,6.32,3.46,8.49,6.48s3.05,6.9,3.66,10.7a26.3,26.3,0,0,1,.36,7.82,9.85,9.85,0,0,1-3.46,6.57c-2.27,1.65-5.38,1.66-7.28,3.82-1.1,1.25-1.58,3-2.36,4.52s-2.13,3-3.67,2.73-2.47-1.9-2.69-3.55a21.45,21.45,0,0,1,.29-5c.3-3-.08-6.18-1.82-8.41-1.2-1.52-2.92-2.44-4.08-4-2.78-3.76-1.51-10-4.56-13.53a7.21,7.21,0,0,0-7-2c-2.47.52-4.73,1.86-7,3a53.1,53.1,0,0,1-9.59,3.7c-2.78.76-6,2.58-7-1.12C628.66,325.41,630,317.09,633.22,312.69Z"/><path class="cls-8" d="M705,434.24s10.62,27.08,2.65,38.23l-17.52-4s15.93,4.78,13.54-4.78S705,434.24,705,434.24Z"/><path class="cls-8" d="M710.8,501.15s-23.1,1.59-29.47-3.19a61,61,0,0,0,28.75,12Z"/><path class="cls-8" d="M611.29,450.15s-11.95,36.64-11.15,42.21,2.39,66.9,2.39,66.9l2.39-.8-.8-66.9Z"/><path class="cls-22" d="M713.61,494.93l-273-220a17.05,17.05,0,0,0-12.1-5h-11.6a148,148,0,1,0-25.63,25.63v11.59a17.07,17.07,0,0,0,5,12.1l273,220a17,17,0,0,0,24,.09l.1-.09,20.12-20.1A17.18,17.18,0,0,0,713.61,494.93Zm-413.47-225a91.14,91.14,0,1,1,91.14-91.14h0a91.09,91.09,0,0,1-91,91.16h-.12Z"/><path class="cls-4" d="M715.61,492.93l-273-220a17.05,17.05,0,0,0-12.1-5h-11.6a148,148,0,1,0-25.63,25.63v11.59a17.07,17.07,0,0,0,5,12.1l273,220a17,17,0,0,0,24,.09l.1-.09,20.12-20.1A17.18,17.18,0,0,0,715.61,492.93Zm-413.47-225a91.14,91.14,0,1,1,91.14-91.14h0a91.09,91.09,0,0,1-91,91.16h-.12Z"/><path class="cls-19" d="M695.31,472.87s-39.85-45.7-34.25-14.34c4,22.3,19.11,34.25,26.28,36.64S695.31,472.87,695.31,472.87Z"/><path class="cls-18" d="M704.87,430.66s.8,29.47,4.78,33.45-2.39,8.76-2.39,8.76l-15.93-4s4,26.28-12.74,23.1c0,0,11.15,10.35,22.3,11.95s10.35-2.39,10.35-2.39L728,481.62Z"/><polygon class="cls-18" points="709.28 501.96 725.44 498.41 723.28 490.96 713.28 486.96 700.28 492.96 709.28 501.96"/></g></g></svg>